<svg width="21" height="25" xmlns="http://www.w3.org/2000/svg"><path d="m0 0h21v25h-21z" fill="none"/><path d="m6.60282 20.99995a12.15162 12.15162 0 0 0 12.259-12.21326c0-.18579 0-.37074-.0126-.55485a8.748 8.748 0 0 0 2.14952-2.22184 8.62494 8.62494 0 0 1 -2.47464.67536 4.3102 4.3102 0 0 0 1.8942-2.3742 8.654 8.654 0 0 1 -2.73588 1.04184 4.31033 4.31033 0 0 0 -7.34242 3.91488 12.24749 12.24749 0 0 1 -8.87966-4.48478 4.286 4.286 0 0 0 1.33392 5.73 4.28876 4.28876 0 0 1 -1.95552-.53722v.05439a4.298 4.298 0 0 0 3.4566 4.20778 4.31723 4.31723 0 0 1 -1.94544.07365 4.31148 4.31148 0 0 0 4.02528 2.98092 8.66585 8.66585 0 0 1 -5.3508 1.84112 8.80489 8.80489 0 0 1 -1.02564-.06193 12.231 12.231 0 0 0 6.60408 1.9248" fill="#fff"/></svg>