<svg xmlns="http://www.w3.org/2000/svg" width="38px" height="38px" viewBox="0 0 38 38">
<defs><style>.fill{fill:#fff;}.no-fill{fill:none;}</style></defs>
<g id="View_Ring_1_">
	<polyline class="no-fill" points="0,0 38,0 38,38 0,38"/>
	<path class="fill" style="opacity:0.32" d="M28.4,9.3C26,6.9,22.7,5.6,19,5.6s-7,1.4-9.4,3.8C7,11.8,5.4,15.2,5.4,19c0,7.5,6.1,13.6,13.6,13.6
		S32.6,26.5,32.6,19C32.6,15.2,31,11.8,28.4,9.3z M19,30.4c-6.3,0-11.4-5.1-11.4-11.4c0-3.2,1.3-6.2,3.4-8.3c2.1-2,4.9-3.2,8-3.2
		s5.9,1.3,8,3.2c2.2,2.1,3.4,5.1,3.4,8.3C30.4,25.3,25.3,30.4,19,30.4z"/>
	<path class="fill" style="display:none;" d="M19,30.5c-6.3,0-11.4-5.1-11.4-11.4c0-3.3,1.3-6.3,3.5-8.4S16,7.5,19,7.5s5.9,1.3,7.9,3.1
		c2.2,2.1,3.5,5.1,3.5,8.4C30.4,25.4,25.3,30.5,19,30.5z"/>
	<path class="fill" d="M19,5.5c-3.6,0-6.9,1.4-9.4,3.8l0,0C9.4,9.5,9.3,9.7,9.3,10c0,0.6,0.5,1,1,1
		c0.4,0,0.6-0.2,0.8-0.4C13,8.8,15.9,7.5,19,7.5s6,1.3,7.9,3.1c0.2,0.2,0.4,0.4,0.8,0.4c0.5,0,1-0.4,1-1c0-0.3-0.1-0.5-0.3-0.7l0,0
		C25.9,6.9,22.6,5.5,19,5.5z"/>
</g>
</svg>
