<svg id="Checkmark" xmlns="http://www.w3.org/2000/svg" width="8" height="16" viewBox="0 0 8 16"><defs><style>.cls-1{fill:none;}.cls-2{fill:#fff;}</style></defs><title>checkmark</title><rect id="Bounding-Box" class="cls-1" width="8" height="16"/><g id="Icon"><path class="cls-2" d="M2.76,11.69.86,9.33A.72.72,0,0,1,.7,8.9a.53.53,0,0,1,.53-.55.6.6,0,0,1,.51.28l1.58,2L6.41,5.74a.57.57,0,0,1,.48-.32.54.54,0,0,1,.56.51.83.83,0,0,1-.17.44L3.91,11.68a.67.67,0,0,1-.56.32A.74.74,0,0,1,2.76,11.69Z"/></g></svg>