<svg width="21" height="25" xmlns="http://www.w3.org/2000/svg"><title>social.line_reduced@1x_FFF_np</title><rect width="21" height="25" fill="none"/><path d="M20.5,11.09106C20.5,6.62962,16.01409,3,10.49992,3,4.98638,3,.5,6.62962.5,11.09106c0,3.99967,3.55756,7.34934,8.36313,7.98266.32566.07.76891.214.881.49168a2.042,2.042,0,0,1,.03235.90151s-.11729.70351-.1427.85351c-.04356.252-.20094.98587.86615.53747a32.2811,32.2811,0,0,0,7.857-5.78869h-.00047A7.18774,7.18774,0,0,0,20.5,11.09106ZM6.97181,13.473a.19434.19434,0,0,1-.19447.19422H3.97494a.19368.19368,0,0,1-.13448-.05414l-.00285-.00268-.00269-.003a.19238.19238,0,0,1-.05445-.13409V9.12913a.19447.19447,0,0,1,.19479-.19405h.70151a.19433.19433,0,0,1,.19463.19405v3.45023H6.77734a.19434.19434,0,0,1,.19447.19422Zm1.69114.00038a.19431.19431,0,0,1-.19479.19374H7.76665a.1943.1943,0,0,1-.19478-.19374V9.129a.19444.19444,0,0,1,.19478-.19391h.70151A.19446.19446,0,0,1,8.663,9.129Zm4.828,0a.1942.1942,0,0,1-.19478.19374H12.5948a.19168.19168,0,0,1-.04988-.0066l-.00284-.00064-.01327-.00425-.00582-.0022-.00948-.00394-.00931-.00456-.00554-.003-.012-.00725-.002-.00157a.19228.19228,0,0,1-.04941-.04784L10.436,10.89319v2.5802a.19434.19434,0,0,1-.19494.19374H9.53968a.1943.1943,0,0,1-.19478-.19374V9.129a.19444.19444,0,0,1,.19478-.19391H10.241l.00678.00032.0101.00063.01027.00127.0082.0011.01121.00252.00679.00172.01152.00378.00632.0022.01121.00472.00615.003.01042.00582.00584.00345.0101.00694.00506.00393.01042.00866.00363.0033.01168.012.00126.00125.01515.01968L12.4,11.71V9.129a.19435.19435,0,0,1,.19479-.19391h.70136a.19434.19434,0,0,1,.19478.19391ZM17.3642,9.82875a.19424.19424,0,0,1-.19447.19422H15.26394v.73421h1.90579a.19437.19437,0,0,1,.19447.19437v.69927a.19423.19423,0,0,1-.19447.19421H15.26394v.73437h1.90579a.19433.19433,0,0,1,.19447.19422V13.473a.19433.19433,0,0,1-.19447.19422h-2.8024a.1935.1935,0,0,1-.13448-.0543L14.23,13.61044l-.00269-.003a.19238.19238,0,0,1-.05445-.13409V9.12917a.19284.19284,0,0,1,.054-.13378L14.23,8.99192l.00222-.00205a.19408.19408,0,0,1,.13511-.05477h2.8024a.19437.19437,0,0,1,.19447.19437Z" fill="#fff"/></svg>