<svg xmlns="http://www.w3.org/2000/svg" width="38px" height="38px" viewBox="0 0 38 38">
<defs><style>.fill{fill:#fff;}.no-fill{fill:none;}</style></defs>
<g>
	<rect class="no-fill" width="38" height="38"/>
	<path style="opacity:0.32;fill:#FFFFFF;" d="M25.11,11.73c0,0-2.5-2.23-6.11-2.23s-6.11,2.23-6.11,2.23c-0.38,0.32-0.61,0.8-0.61,1.33
		c0,0.48,0.19,0.91,0.5,1.23c0.32,0.32,5.24,5.32,5.46,5.53c0.2,0.19,0.47,0.31,0.77,0.31s0.57-0.12,0.77-0.31
		c0.22-0.21,5.14-5.21,5.46-5.53c0.31-0.32,0.5-0.75,0.5-1.23C25.73,12.53,25.49,12.05,25.11,11.73z"/>
</g>
</svg>
