<svg width="22" height="25" xmlns="http://www.w3.org/2000/svg"><path d="m0 0h22v25h-22z" fill="none"/><g fill="#fff"><path d="m7.05 18.55a.549.549 0 0 1 -.37208-.14453l-6.00018-5.50014a.55093.55093 0 0 1 0-.81056l6.00026-5.50013a.55018.55018 0 0 1 .74416.81056l-5.55883 5.09485 5.55879 5.09485a.55.55 0 0 1 -.37212.9551z"/><path d="m8.74994 21a.55037.55037 0 0 1 -.52931-.69508l4.50012-15.9053a.54963.54963 0 0 1 1.05862.29609l-4.50012 15.90529a.55009.55009 0 0 1 -.52931.399z"/><path d="m14.95 18.55a.549.549 0 0 0 .37208-.14453l6.00022-5.50014a.55093.55093 0 0 0 0-.81056l-6.0003-5.50013a.55018.55018 0 0 0 -.74416.81056l5.55879 5.09485-5.55875 5.09485a.55.55 0 0 0 .37212.9551z"/></g></svg>