<svg width="18" height="25" xmlns="http://www.w3.org/2000/svg"><path d="m0 0h18v25h-18z" fill="none"/><g fill="#fff"><path d="m11.39385 10.10615a4.29818 4.29818 0 0 0 -1.93835-1.102l-.71729.71759a2.17884 2.17884 0 0 0 -.19141.23226 3.25128 3.25128 0 0 1 2.0692 5.52611l-.34785.34785-1.33865 1.33873-1.7835 1.78344a3.25 3.25 0 1 1 -4.5962-4.59619l1.784-1.78394a5.47688 5.47688 0 0 1 -.07569-.77588 5.48189 5.48189 0 0 1 .076-.78009l-2.56211 2.56208a4.35 4.35 0 0 0 6.15183 6.15189l3.11394-3.114.35608-.356a4.51087 4.51087 0 0 0 1.24573-2.80139 4.34594 4.34594 0 0 0 -.14356-1.41137 4.29894 4.29894 0 0 0 -1.10217-1.93909z"/><path d="m16.228 5.272a4.355 4.355 0 0 0 -6.15186 0l-3.09037 3.09037-.35595.356a4.51006 4.51006 0 0 0 -1.24573 2.80139 4.34655 4.34655 0 0 0 .14355 1.41144 4.20312 4.20312 0 0 0 3.04053 3.041l.71729-.71753a2.15692 2.15692 0 0 0 .1914-.2323 3.25127 3.25127 0 0 1 -2.06921-5.52621l.08335-.08343 1.0508-1.05073 2.3122-2.31213a3.25 3.25 0 1 1 4.5962 4.59619l-1.76033 1.76026a5.49382 5.49382 0 0 1 .07568.77588 5.48188 5.48188 0 0 1 -.076.78009l2.53845-2.53846a4.35494 4.35494 0 0 0 0-6.15183z"/></g></svg>